<svg width="130" height="30" viewBox="0 0 130 30" fill="none" xmlns="http://www.w3.org/2000/svg">
<g clip-path="url(#clip0_32_44)">
<path d="M26.1766 6.79553C25.2675 5.64941 23.6007 5.45645 22.4546 6.36557L17.6655 10.1963V4.22746C17.6655 2.76406 16.4793 1.57909 15.0172 1.57909C13.5551 1.57909 12.3688 2.76535 12.3688 4.22746V6.47306C13.2248 7.01698 13.9811 7.70465 14.6041 8.5011C13.9384 7.92351 13.1847 7.44305 12.3688 7.08173V7.09209C11.2875 6.6194 10.0934 6.35521 8.83723 6.35521C6.42974 6.35521 4.24889 7.32002 2.65598 8.88184C2.61454 8.92199 2.57439 8.96343 2.53295 9.00487C1.78571 9.76636 1.17704 10.6625 0.743203 11.6532C0.270512 12.7346 0.0335186 13.9299 0.00632265 15.1848C-0.00144761 15.5436 -0.00274266 15.9308 0.00632265 16.3296V24.4755C0.00632265 25.9389 1.19258 27.1238 2.65469 27.1238C4.11809 27.1238 5.30305 25.9376 5.30305 24.4755V23.758C4.54804 23.2413 3.87721 22.6119 3.31387 21.8932C3.91218 22.4125 4.58042 22.8515 5.30305 23.1986C6.42715 23.7373 7.68334 24.0455 9.01076 24.0598C10.908 24.0222 12.6589 23.3863 14.0822 22.3322L14.0835 22.3231C15.8577 20.9944 16.9831 19.1243 17.4182 17.1157C17.3975 18.0974 17.2149 19.0713 16.8769 19.9946L20.9627 25.1463C21.8718 26.2924 23.5373 26.4854 24.6847 25.5763C25.8308 24.6671 26.0238 23.0004 25.1146 21.8543L19.8593 15.2276L25.7479 10.5175C26.894 9.60707 27.0857 7.94164 26.1766 6.79553ZM12.3688 15.2302C12.3688 17.1805 10.7876 18.7617 8.83723 18.7617C6.88689 18.7617 5.30564 17.1805 5.30564 15.2302V15.1848C5.30564 13.2345 6.88689 11.6532 8.83723 11.6532C10.7876 11.6532 12.3688 13.2345 12.3688 15.1848V15.2302Z" fill="url(#paint0_linear_32_44)"/>
</g>
<g clip-path="url(#clip1_32_44)">
<path d="M42.3093 6.15736C44.0372 6.15736 45.4784 6.73333 46.6329 7.88527C47.8128 9.03721 48.3887 10.4784 48.3887 12.1809C48.3887 13.8835 47.8128 15.2993 46.6329 16.4766C45.481 17.6285 44.0398 18.2045 42.3093 18.2045H38.5617L38.5668 23.581H35.555L35.55 6.15483H42.3093V6.15736ZM42.3093 15.3779C44.0905 15.3779 45.3744 14.0408 45.3744 12.1809C45.3744 10.3211 44.0905 8.98392 42.3093 8.98392H38.5617V15.3754H42.3093V15.3779Z" fill="#141414"/>
<path d="M51.3472 18.1969C51.7659 20.1887 53.3644 21.2873 55.5389 21.2873C57.0333 21.2873 58.1574 20.7367 58.9185 19.6634L61.2503 21.026C59.9665 22.9391 58.0533 23.8804 55.5135 23.8804C53.3923 23.8804 51.6619 23.2258 50.3526 21.9419C49.0434 20.6327 48.3887 18.9809 48.3887 16.9917C48.3887 15.0278 49.0434 13.4039 50.3272 12.0921C51.6111 10.755 53.2883 10.1003 55.3054 10.1003C57.2186 10.1003 58.7891 10.7803 60.0197 12.1175C61.2503 13.4546 61.8796 15.1039 61.8796 17.017C61.8796 17.3063 61.8542 17.697 61.7756 18.1969H51.3472ZM59.0226 15.893C58.6293 13.7718 57.1374 12.6706 55.2775 12.6706C53.1817 12.6706 51.7151 13.9012 51.3219 15.893H59.0226Z" fill="#141414"/>
<path d="M65.7287 18.1969C66.1473 20.1887 67.7458 21.2873 69.9203 21.2873C71.4148 21.2873 72.5388 20.7367 73.3 19.6634L75.6318 21.026C74.3479 22.9391 72.4348 23.8804 69.8949 23.8804C67.7737 23.8804 66.0433 23.2258 64.7341 21.9419C63.4248 20.6327 62.7702 18.9809 62.7702 16.9917C62.7702 15.0278 63.4248 13.4039 64.7087 12.0921C65.9926 10.755 67.6697 10.1003 69.6869 10.1003C71.6 10.1003 73.1706 10.7803 74.4012 12.1175C75.6318 13.4546 76.261 15.1039 76.261 17.017C76.261 17.3063 76.2357 17.697 76.157 18.1969H65.7287ZM73.404 15.893C73.0107 13.7718 71.5188 12.6706 69.659 12.6706C67.5631 12.6706 66.0966 13.9012 65.7033 15.893H73.404Z" fill="#141414"/>
<path d="M80.3182 6.15736V16.129L84.7711 10.2856H88.1255L84.0379 15.8143L88.8055 23.543H85.6364L82.074 17.9634L80.3182 20.1379V23.543H77.5424V6.15736H80.3182Z" fill="#141414"/>
<path d="M98.7619 10.4429H101.591V23.5404H98.7619V22.1779C97.5211 23.4643 96.1687 23.8804 94.1769 23.8804C92.3704 23.8804 90.8505 23.2258 89.5667 21.8886C88.2828 20.5515 87.6535 18.9022 87.6535 16.9891C87.6535 15.0506 88.2828 13.4267 89.5667 12.0896C90.8505 10.7524 92.3704 10.0978 94.1769 10.0978C96.1687 10.0978 97.5617 10.5723 98.7619 11.775V10.4429ZM94.621 21.1833C95.8008 21.1833 96.7954 20.79 97.582 20.0034C98.3686 19.1915 98.7619 18.1969 98.7619 16.9916C98.7619 15.7864 98.3686 14.7918 97.582 14.0052C96.7954 13.1933 95.8008 12.8 94.621 12.8C93.4411 12.8 92.4465 13.1933 91.6599 14.0052C90.8734 14.7918 90.4801 15.7864 90.4801 16.9916C90.4801 18.1969 90.8734 19.1915 91.6599 20.0034C92.4465 20.7925 93.4437 21.1833 94.621 21.1833Z" fill="#141414"/>
<path d="M115.467 10.1891H110.484C109.873 10.1891 109.213 10.1891 108.584 10.1891C107.021 10.1891 105.729 10.3591 104.745 11.2624C103.753 12.1733 103.273 13.31 103.273 14.7411C103.273 15.7433 103.545 16.6288 104.103 17.4458C103.222 18.1563 102.776 19.0875 102.776 20.2166C102.776 21.4167 103.296 22.3251 104.362 22.9949C103.484 23.5582 103.037 24.36 103.037 25.3774C103.037 28.0771 105.166 29.5615 109.03 29.5615C112.636 29.5615 114.787 27.831 114.787 24.9309C114.787 22.5204 113.204 21.1376 110.446 21.1376H107.12C106.229 21.1376 105.699 20.7139 105.699 20.0034C105.699 19.5746 105.808 19.2524 106.044 18.9936C106.825 19.3336 107.658 19.4985 108.589 19.4985C110.116 19.4985 111.382 19.0494 112.349 18.1614C113.308 17.2555 113.795 16.1036 113.795 14.736C113.795 14.0839 113.663 13.4318 113.4 12.7899H114.686L115.467 10.1891ZM109.028 27.113C107.637 27.113 105.983 26.7806 105.983 25.1948C105.983 24.256 106.551 23.6724 107.538 23.5912H109.814C111.195 23.5912 111.864 24.0809 111.864 25.0907C111.864 26.4507 110.938 27.113 109.028 27.113ZM108.558 12.3763C109.956 12.3763 110.898 13.3252 110.898 14.7411C110.898 16.1188 109.936 17.0805 108.558 17.0805C107.165 17.0805 106.194 16.1188 106.194 14.7411C106.194 13.305 107.122 12.3763 108.558 12.3763Z" fill="#141414"/>
<path d="M118.434 18.1969C118.852 20.1887 120.451 21.2873 122.625 21.2873C124.12 21.2873 125.246 20.7367 126.005 19.6634L128.337 21.026C127.053 22.9391 125.14 23.8804 122.6 23.8804C120.479 23.8804 118.748 23.2258 117.439 21.9419C116.13 20.6327 115.475 18.9809 115.475 16.9917C115.475 15.0278 116.13 13.4039 117.414 12.0921C118.697 10.755 120.375 10.1003 122.392 10.1003C124.305 10.1003 125.876 10.7803 127.109 12.1175C128.339 13.4546 128.968 15.1039 128.968 17.017C128.968 17.3063 128.943 17.697 128.864 18.1969H118.434ZM126.109 15.893C125.716 13.7718 124.224 12.6706 122.364 12.6706C120.268 12.6706 118.801 13.9012 118.408 15.893H126.109Z" fill="#141414"/>
</g>
<defs>
<linearGradient id="paint0_linear_32_44" x1="0.951861" y1="27.7428" x2="24.7533" y2="8.02852" gradientUnits="userSpaceOnUse">
<stop stop-color="#FF4F66"/>
<stop offset="1" stop-color="#ED2F68"/>
</linearGradient>
<clipPath id="clip0_32_44">
<rect width="26.7504" height="25.6945" fill="white" transform="translate(0 1.57909)"/>
</clipPath>
<clipPath id="clip1_32_44">
<rect width="93.6266" height="23.5826" fill="white" transform="translate(35.5499 6.15492)"/>
</clipPath>
</defs>
</svg>
