<svg width="24" height="24" viewBox="0 0 24 24" fill="none" xmlns="http://www.w3.org/2000/svg">
<path fill-rule="evenodd" clip-rule="evenodd" d="M10.8649 2.07332C11.3117 1.10473 12.6883 1.10473 13.1351 2.07332L15.495 7.18958L21.0901 7.85297C22.1493 7.97856 22.5747 9.28779 21.7916 10.012L17.655 13.8374L18.753 19.3637C18.9609 20.4099 17.8472 21.219 16.9165 20.698L12 17.946L7.08354 20.698C6.15277 21.219 5.03907 20.4099 5.24695 19.3637L6.34501 13.8374L2.20841 10.012C1.42528 9.28779 1.85068 7.97856 2.90992 7.85297L8.50503 7.18958L10.8649 2.07332ZM12 4.38751L10.1453 8.40849C9.96322 8.80325 9.58911 9.07505 9.15741 9.12624L4.76009 9.64761L8.01114 12.6541C8.33031 12.9492 8.47321 13.389 8.38848 13.8154L7.52549 18.1586L11.3894 15.9958C11.7688 15.7834 12.2312 15.7834 12.6106 15.9958L16.4745 18.1586L15.6115 13.8154C15.5268 13.389 15.6697 12.9492 15.9889 12.6541L19.2399 9.64761L14.8426 9.12624C14.4109 9.07505 14.0368 8.80325 13.8547 8.40849L12 4.38751Z" fill="#383838"/>
</svg>
