<svg width="16" height="16" viewBox="0 0 16 16" fill="none" xmlns="http://www.w3.org/2000/svg">
<path d="M10.6667 10H9.33333V11.3333C9.33333 12.0697 8.73637 12.6667 8 12.6667H3.99999C3.26362 12.6667 2.66666 12.0697 2.66666 11.3333V4.66667C2.66666 3.93029 3.26362 3.33333 3.99999 3.33333H8C8.73637 3.33333 9.33333 3.93029 9.33333 4.66667V6H10.6667V4.66667C10.6667 3.19391 9.47275 2 8 2H3.99999C2.52724 2 1.33333 3.19391 1.33333 4.66667V11.3333C1.33333 12.8061 2.52724 14 3.99999 14H8C9.47275 14 10.6667 12.8061 10.6667 11.3333V10Z" fill="#141414"/>
<path d="M4.66666 8.66667H13.0572L11.5286 10.1953L12.4714 11.1381L15.1381 8.47141C15.3984 8.21106 15.3984 7.78895 15.1381 7.5286L12.4714 4.86193L11.5286 5.80474L13.0572 7.33333H4.66666V8.66667Z" fill="#141414"/>
</svg>
